<svg id="Capa_1" enable-background="new 0 0 512 512" height="512" viewBox="0 0 512 512" width="512" xmlns="http://www.w3.org/2000/svg"><g><path d="m461.797 205.797c0-113.477-92.32-205.797-205.797-205.797s-205.797 92.32-205.797 205.797c0 108.432 84.297 197.538 190.797 205.247v100.956h30v-100.956c106.5-7.709 190.797-96.815 190.797-205.247zm-205.797 175.797c-96.935 0-175.797-78.862-175.797-175.797s78.862-175.797 175.797-175.797 175.797 78.862 175.797 175.797-78.862 175.797-175.797 175.797z"/><path d="m124.088 185.418v40.758c0 30.87 25.114 55.984 55.984 55.984h5.027c30.87 0 55.984-25.114 55.984-55.984v-35.379h-58.498v30h28.498v5.379c0 14.328-11.657 25.984-25.984 25.984h-5.027c-14.328 0-25.984-11.656-25.984-25.984v-40.758c0-14.328 11.657-25.984 25.984-25.984h61.012v-30h-61.012c-30.869 0-55.984 25.114-55.984 55.984z"/><path d="m331.927 129.434c-30.87 0-55.984 25.114-55.984 55.984v40.758c0 30.87 25.114 55.984 55.984 55.984s55.984-25.114 55.984-55.984v-40.758c0-30.87-25.114-55.984-55.984-55.984zm25.984 96.742c0 14.328-11.656 25.984-25.984 25.984s-25.984-11.656-25.984-25.984v-40.758c0-14.328 11.656-25.984 25.984-25.984s25.984 11.656 25.984 25.984z"/></g></svg>